<svg width="30" height="32" viewBox="0 0 30 32" fill="none" xmlns="http://www.w3.org/2000/svg">
<g filter="url(#filter0_d)">
<path d="M6 26V12H10V26H6ZM13 26V6H17V26H13ZM20 26V18H24V26H20Z" fill="#FBF8FB"/>
<path d="M5.5 26V26.5H6H10H10.5V26V12V11.5H10H6H5.5V12V26ZM12.5 26V26.5H13H17H17.5V26V6V5.5H17H13H12.5V6V26ZM19.5 26V26.5H20H24H24.5V26V18V17.5H24H20H19.5V18V26Z" stroke="#C4C4C4"/>
</g>
<defs>
<filter id="filter0_d" x="0" y="0" width="30" height="32" filterUnits="userSpaceOnUse" color-interpolation-filters="sRGB">
<feFlood flood-opacity="0" result="BackgroundImageFix"/>
<feColorMatrix in="SourceAlpha" type="matrix" values="0 0 0 0 0 0 0 0 0 0 0 0 0 0 0 0 0 0 127 0" result="hardAlpha"/>
<feOffset/>
<feGaussianBlur stdDeviation="2.5"/>
<feComposite in2="hardAlpha" operator="out"/>
<feColorMatrix type="matrix" values="0 0 0 0 0 0 0 0 0 0 0 0 0 0 0 0 0 0 0.25 0"/>
<feBlend mode="normal" in2="BackgroundImageFix" result="effect1_dropShadow"/>
<feBlend mode="normal" in="SourceGraphic" in2="effect1_dropShadow" result="shape"/>
</filter>
</defs>
</svg>
