<svg width="32" height="32" viewBox="0 0 32 32" fill="none" xmlns="http://www.w3.org/2000/svg">
<g filter="url(#filter0_d)">
<path d="M21.9 21.39C21.64 20.59 20.89 20 20 20H19V17C19 16.7348 18.8946 16.4804 18.7071 16.2929C18.5196 16.1054 18.2652 16 18 16H12V14H14C14.2652 14 14.5196 13.8946 14.7071 13.7071C14.8946 13.5196 15 13.2652 15 13V11H17C17.5304 11 18.0391 10.7893 18.4142 10.4142C18.7893 10.0391 19 9.53043 19 9V8.59C21.93 9.77 24 12.64 24 16C24 18.08 23.2 19.97 21.9 21.39ZM15 23.93C11.05 23.44 8 20.08 8 16C8 15.38 8.08 14.78 8.21 14.21L13 19V20C13 20.5304 13.2107 21.0391 13.5858 21.4142C13.9609 21.7893 14.4696 22 15 22V23.93ZM16 6C14.6868 6 13.3864 6.25866 12.1732 6.7612C10.9599 7.26375 9.85752 8.00035 8.92893 8.92893C7.05357 10.8043 6 13.3478 6 16C6 18.6522 7.05357 21.1957 8.92893 23.0711C9.85752 23.9997 10.9599 24.7362 12.1732 25.2388C13.3864 25.7413 14.6868 26 16 26C18.6522 26 21.1957 24.9464 23.0711 23.0711C24.9464 21.1957 26 18.6522 26 16C26 14.6868 25.7413 13.3864 25.2388 12.1732C24.7362 10.9599 23.9997 9.85752 23.0711 8.92893C22.1425 8.00035 21.0401 7.26375 19.8268 6.7612C18.6136 6.25866 17.3132 6 16 6Z" fill="#FBF8FB"/>
<path d="M23.5 16C23.5 17.6902 22.9367 19.2465 21.9916 20.499C21.5376 19.8963 20.8178 19.5 20 19.5H19.5V17C19.5 16.6022 19.342 16.2206 19.0607 15.9393C18.7794 15.658 18.3978 15.5 18 15.5H12.5V14.5H14C14.3978 14.5 14.7794 14.342 15.0607 14.0607C15.342 13.7794 15.5 13.3978 15.5 13V11.5H17C17.663 11.5 18.2989 11.2366 18.7678 10.7678C19.1513 10.3842 19.3973 9.88892 19.4742 9.35839C21.8664 10.606 23.5 13.1099 23.5 16ZM13.2322 21.7678C13.5814 22.117 14.0233 22.3522 14.5 22.4495V23.3424C11.0736 22.6503 8.5 19.6287 8.5 16C8.5 15.7463 8.51439 15.4954 8.54098 15.2481L12.5 19.2071V20C12.5 20.663 12.7634 21.2989 13.2322 21.7678ZM16 5.5C14.6211 5.5 13.2557 5.77159 11.9818 6.29926C10.7079 6.82694 9.55039 7.60036 8.57538 8.57538C6.60625 10.5445 5.5 13.2152 5.5 16C5.5 18.7848 6.60625 21.4555 8.57538 23.4246C9.55039 24.3996 10.7079 25.1731 11.9818 25.7007C13.2557 26.2284 14.6211 26.5 16 26.5C18.7848 26.5 21.4555 25.3938 23.4246 23.4246C25.3938 21.4555 26.5 18.7848 26.5 16C26.5 14.6211 26.2284 13.2557 25.7007 11.9818C25.1731 10.7079 24.3996 9.55039 23.4246 8.57538C22.4496 7.60036 21.2921 6.82694 20.0182 6.29926C18.7443 5.77159 17.3789 5.5 16 5.5Z" stroke="#C4C4C4"/>
</g>
<defs>
<filter id="filter0_d" x="0" y="0" width="32" height="32" filterUnits="userSpaceOnUse" color-interpolation-filters="sRGB">
<feFlood flood-opacity="0" result="BackgroundImageFix"/>
<feColorMatrix in="SourceAlpha" type="matrix" values="0 0 0 0 0 0 0 0 0 0 0 0 0 0 0 0 0 0 127 0" result="hardAlpha"/>
<feOffset/>
<feGaussianBlur stdDeviation="2.5"/>
<feComposite in2="hardAlpha" operator="out"/>
<feColorMatrix type="matrix" values="0 0 0 0 0 0 0 0 0 0 0 0 0 0 0 0 0 0 0.25 0"/>
<feBlend mode="normal" in2="BackgroundImageFix" result="effect1_dropShadow"/>
<feBlend mode="normal" in="SourceGraphic" in2="effect1_dropShadow" result="shape"/>
</filter>
</defs>
</svg>
